<?xml version="1.0" encoding="UTF-8"?>
<svg version="1.1" xmlns="http://www.w3.org/2000/svg" width="1050" height="758">
<path d="M0 0 C346.5 0 693 0 1050 0 C1050 250.14 1050 500.28 1050 758 C703.5 758 357 758 0 758 C0 507.86 0 257.72 0 0 Z " fill="#FEFEFE" transform="translate(0,0)"/>
<path d="M0 0 C0.89312393 0.00401825 1.78624786 0.0080365 2.70643616 0.01217651 C3.38330978 0.01734283 4.06018341 0.02250916 4.75756836 0.02783203 C4.92034106 7.58191933 5.0444295 15.13582305 5.12025356 22.69126892 C5.15666217 26.20041194 5.20597464 29.70834829 5.28564453 33.21679688 C5.37683132 37.25808741 5.41032318 41.29812705 5.44116211 45.34033203 C5.49535561 47.21422607 5.49535561 47.21422607 5.55064392 49.12597656 C5.55331257 55.08504885 5.40103288 59.07230647 1.4296875 63.71142578 C-0.81692914 65.89644173 -3.21842498 67.84081623 -5.67993164 69.77783203 C-12.98948291 75.81399993 -18.46016124 84.84860848 -19.48461914 94.25048828 C-20.10593289 105.78134056 -14.74013963 115.64293306 -8.80493164 125.15283203 C5.02578984 147.65759633 5.02578984 147.65759633 4.98461914 159.2265625 C4.98491119 159.91994217 4.98520325 160.61332184 4.98550415 161.32771301 C4.98412021 163.6002796 4.96860375 165.87251082 4.95288086 168.14501953 C4.94914739 169.72827984 4.94630199 171.31154246 4.94430542 172.89480591 C4.93669524 177.04751036 4.91706942 181.20007334 4.89489746 185.35272217 C4.8743825 189.59596849 4.86529165 193.83923783 4.85522461 198.08251953 C4.83382089 206.39768838 4.79971678 214.71274257 4.75756836 223.02783203 C1.91332729 222.90100549 -0.93009101 222.76563985 -3.77368164 222.62548828 C-4.56935547 222.59088501 -5.3650293 222.55628174 -6.18481445 222.52062988 C-31.94932166 221.21001206 -55.38187012 206.83669873 -73.24243164 189.02783203 C-74.01973633 188.27373047 -74.79704102 187.51962891 -75.59790039 186.74267578 C-86.62046547 175.36894934 -94.13457858 160.89658237 -99.24243164 146.02783203 C-99.55696289 145.13837891 -99.87149414 144.24892578 -100.19555664 143.33251953 C-109.21737851 115.82480775 -105.10819653 85.48972002 -92.24243164 60.02783203 C-86.41333163 48.98621906 -79.13778102 39.74793336 -70.24243164 31.02783203 C-69.39680664 30.19509766 -68.55118164 29.36236328 -67.67993164 28.50439453 C-50.11140603 12.00574709 -24.49933085 -0.14332241 0 0 Z " fill="#D0010D" transform="translate(245.242431640625,266.97216796875)"/>
<path d="M0 0 C1.24703957 -0.01248528 1.24703957 -0.01248528 2.51927185 -0.02522278 C5.26558116 -0.04930488 8.01165297 -0.05809196 10.75805664 -0.06469727 C12.66850353 -0.07366378 14.5789497 -0.08278563 16.48939514 -0.09205627 C20.49327298 -0.10854312 24.49706721 -0.11624604 28.50097656 -0.11914062 C33.63041425 -0.12452922 38.75906621 -0.16223022 43.88828182 -0.20788479 C47.83369314 -0.23762947 51.77891447 -0.24486359 55.72442818 -0.24586678 C57.61548022 -0.25007294 59.50653264 -0.26252312 61.39747429 -0.28338432 C64.0429149 -0.31025016 66.68652375 -0.30548866 69.33203125 -0.29296875 C70.1119342 -0.30780304 70.89183716 -0.32263733 71.69537354 -0.33792114 C75.52574523 -0.28631653 77.55526233 0.18334453 80.71618652 2.4002533 C83.21636379 6.00699344 83.35846371 8.03649533 83.36181641 12.40405273 C83.36897171 13.09900848 83.37612701 13.79396423 83.38349915 14.50997925 C83.40034652 16.79696291 83.38101017 19.08197505 83.35961914 21.36889648 C83.36044822 22.96403159 83.36290908 24.55916661 83.3669281 26.15429688 C83.36978335 29.49334506 83.35511256 32.83172144 83.32763672 36.1706543 C83.29355357 40.4447832 83.29957426 44.71771119 83.31829929 48.99189758 C83.32888189 52.28456584 83.3199202 55.57695598 83.30491447 58.86959839 C83.29974139 60.44521254 83.30020386 62.02085584 83.30645943 63.59646606 C83.31192724 65.80118983 83.29149035 68.0042107 83.26416016 70.20874023 C83.25796158 71.46162842 83.251763 72.7145166 83.24537659 74.00537109 C82.63757678 77.9037665 81.52106047 79.5617262 78.73071289 82.30639648 C75.24392505 83.4686591 72.13067169 83.43879745 68.50537109 83.41992188 C67.77341522 83.4200679 67.04145935 83.42021393 66.287323 83.42036438 C63.8686832 83.41966788 61.45012048 83.41188777 59.03149414 83.40405273 C57.35426373 83.40218762 55.67703278 83.40076416 53.99980164 83.39976501 C49.58570857 83.39594718 45.17164842 83.38612314 40.75756836 83.37506104 C36.25317836 83.36483115 31.74878304 83.36026401 27.24438477 83.35522461 C18.40647968 83.34450024 9.56859902 83.3274326 0.73071289 83.30639648 C0.40071289 81.98639648 0.07071289 80.66639648 -0.26928711 79.30639648 C-0.59928711 80.62639648 -0.92928711 81.94639648 -1.26928711 83.30639648 C-5.88928711 83.30639648 -10.50928711 83.30639648 -15.26928711 83.30639648 C-15.33708816 73.48358908 -15.39211778 63.66093733 -15.42472363 53.8379488 C-15.4403735 49.27664299 -15.46159937 44.7155057 -15.49560547 40.15429688 C-15.52822314 35.75171949 -15.54614523 31.34930412 -15.55391884 26.94661522 C-15.55945803 25.26769651 -15.57027476 23.58878657 -15.58647728 21.9099369 C-15.60828388 19.55662564 -15.61125273 17.20398214 -15.60986328 14.85058594 C-15.62604202 13.81156631 -15.62604202 13.81156631 -15.64254761 12.7515564 C-15.6150114 8.43583656 -14.98674104 5.69157466 -12.26928711 2.30639648 C-8.68518649 -0.46823798 -4.3367528 0.00368643 0 0 Z " fill="#FBF0F1" transform="translate(562.269287109375,388.693603515625)"/>
<path d="M0 0 C0.89312393 0.00401825 1.78624786 0.0080365 2.70643616 0.01217651 C3.38330978 0.01734283 4.06018341 0.02250916 4.75756836 0.02783203 C4.92034106 7.58191933 5.0444295 15.13582305 5.12025356 22.69126892 C5.15666217 26.20041194 5.20597464 29.70834829 5.28564453 33.21679688 C5.37683132 37.25808741 5.41032318 41.29812705 5.44116211 45.34033203 C5.49535561 47.21422607 5.49535561 47.21422607 5.55064392 49.12597656 C5.55331257 55.08504885 5.40103288 59.07230647 1.4296875 63.71142578 C-0.81692914 65.89644173 -3.21842498 67.84081623 -5.67993164 69.77783203 C-12.32670409 75.26668258 -17.69431436 83.51318701 -19.24243164 92.02783203 C-19.90243164 92.02783203 -20.56243164 92.02783203 -21.24243164 92.02783203 C-21.24243164 91.36783203 -21.24243164 90.70783203 -21.24243164 90.02783203 C-47.64243164 90.02783203 -74.04243164 90.02783203 -101.24243164 90.02783203 C-102.53764858 86.14218121 -101.50535294 83.59327048 -100.30493164 79.84033203 C-100.08039307 79.13489258 -99.85585449 78.42945313 -99.62451172 77.70263672 C-90.18937777 49.38153582 -69.89443591 25.4446051 -43.55493164 11.40283203 C-30.07992741 5.02107003 -15.02933003 -0.08792239 0 0 Z " fill="#F18A02" transform="translate(245.242431640625,266.97216796875)"/>
<path d="M0 0 C4.62 0 9.24 0 14 0 C14 3.3 14 6.6 14 10 C15.02883301 9.98428955 16.05766602 9.9685791 17.11767578 9.95239258 C20.95304463 9.89788666 24.78837957 9.86357523 28.62402344 9.83520508 C30.28065763 9.82016535 31.93725231 9.79972823 33.59375 9.77368164 C35.9818703 9.73708485 38.36946188 9.72022561 40.7578125 9.70703125 C41.85973434 9.68380547 41.85973434 9.68380547 42.98391724 9.66011047 C47.73483219 9.65857318 50.9763198 10.46215839 55 13 C56.26260244 15.52520488 56.1406621 17.29404693 56.16113281 20.12060547 C56.17074036 21.18866425 56.1803479 22.25672302 56.19024658 23.35714722 C56.19449646 24.51546051 56.19874634 25.6737738 56.203125 26.8671875 C56.20882507 28.05345734 56.21452515 29.23972717 56.22039795 30.46194458 C56.22985749 32.97543442 56.2363857 35.48893671 56.24023438 38.00244141 C56.24994227 41.85210753 56.28095851 45.70124047 56.3125 49.55078125 C56.31902958 51.98958015 56.32428023 54.42838289 56.328125 56.8671875 C56.3404718 58.02145233 56.3528186 59.17571716 56.36553955 60.36495972 C56.36253845 61.43932281 56.35953735 62.51368591 56.35644531 63.62060547 C56.36191376 65.03718948 56.36191376 65.03718948 56.36749268 66.48239136 C55.92942149 69.48351727 55.09304706 70.83019842 53 73 C49.24151826 74.25282725 45.74509081 74.12381835 41.83203125 74.09765625 C41.03721848 74.0962413 40.2424057 74.09482635 39.42350769 74.09336853 C36.88646675 74.08777378 34.34951425 74.07522228 31.8125 74.0625 C30.09179815 74.05748432 28.37109492 74.05292153 26.65039062 74.04882812 C22.4335597 74.03780607 18.21679484 74.02054506 14 74 C14 77.63 14 81.26 14 85 C9.38 85 4.76 85 0 85 C0 81.37 0 77.74 0 74 C-7.92 74 -15.84 74 -24 74 C-24 68 -24 68 -21.5625 65.1875 C-20.716875 64.465625 -19.87125 63.74375 -19 63 C-18.67 62.67 -18.34 62.34 -18 62 C-12.06 62 -6.12 62 0 62 C0 49.13 0 36.26 0 23 C-9.24 23 -18.48 23 -28 23 C-28 39.83 -28 56.66 -28 74 C-32.62 74 -37.24 74 -42 74 C-42.11318599 66.67181674 -42.20482075 59.34411502 -42.25906086 52.01524162 C-42.28510024 48.61171744 -42.32039092 45.20882481 -42.37719727 41.80566406 C-42.4421664 37.88875011 -42.46622753 33.97208742 -42.48828125 30.0546875 C-42.51408768 28.83884979 -42.5398941 27.62301208 -42.56648254 26.37033081 C-42.56961102 16.9205836 -42.56961102 16.9205836 -40.00585938 13.22070312 C-35.98723884 10.25178074 -33.28820514 10.22157293 -28.41796875 10.4140625 C-27.19670036 10.42679703 -27.19670036 10.42679703 -25.95075989 10.43978882 C-23.36163475 10.47325824 -20.77567619 10.5485164 -18.1875 10.625 C-16.4277795 10.65510836 -14.66800996 10.68248266 -12.90820312 10.70703125 C-8.60425696 10.77302721 -4.30266445 10.87649671 0 11 C0 7.37 0 3.74 0 0 Z " fill="#CB0711" transform="translate(455,388)"/>
<path d="M0 0 C1.49080078 -0.0299707 1.49080078 -0.0299707 3.01171875 -0.06054688 C7.50656858 -0.05753827 10.34798373 -0.00883038 14.30078125 2.26171875 C16.125 4.4375 16.125 4.4375 16.4375 7.6875 C16.334375 8.595 16.23125 9.5025 16.125 10.4375 C17.445 10.4375 18.765 10.4375 20.125 10.4375 C20.125 7.1375 20.125 3.8375 20.125 0.4375 C24.085 0.4375 28.045 0.4375 32.125 0.4375 C32.125 3.7375 32.125 7.0375 32.125 10.4375 C33.445 10.1075 34.765 9.7775 36.125 9.4375 C36.455 7.1275 36.785 4.8175 37.125 2.4375 C39.765 2.4375 42.405 2.4375 45.125 2.4375 C45.20660748 4.33260699 45.26446459 6.22874504 45.3125 8.125 C45.36470703 9.70861328 45.36470703 9.70861328 45.41796875 11.32421875 C45.08823813 14.82815615 44.21084712 16.63448511 42.125 19.4375 C39.41620665 20.79189668 37.11566732 20.50251451 34.125 20.4375 C34.33705078 21.11852783 34.54910156 21.79955566 34.76757812 22.5012207 C35.72441455 25.5828123 36.6747775 28.66636288 37.625 31.75 C37.95886719 32.82185547 38.29273438 33.89371094 38.63671875 34.99804688 C38.95253906 36.02607422 39.26835938 37.05410156 39.59375 38.11328125 C39.88701172 39.06114502 40.18027344 40.00900879 40.48242188 40.9855957 C41.125 43.4375 41.125 43.4375 41.125 46.4375 C42.115 46.4375 43.105 46.4375 44.125 46.4375 C44.125 49.7375 44.125 53.0375 44.125 56.4375 C41.155 56.4375 38.185 56.4375 35.125 56.4375 C35.125 57.0975 35.125 57.7575 35.125 58.4375 C36.775 58.4375 38.425 58.4375 40.125 58.4375 C40.62 65.3675 40.62 65.3675 41.125 72.4375 C42.445 72.4375 43.765 72.4375 45.125 72.4375 C45.125 76.0675 45.125 79.6975 45.125 83.4375 C35.7960311 83.92849836 35.7960311 83.92849836 32.5625 81.5625 C31.125 79.4375 31.125 79.4375 30.125 77.4375 C29.795 79.4175 29.465 81.3975 29.125 83.4375 C20.50257848 84.20431614 20.50257848 84.20431614 17.125 82.32421875 C15.5 80.9375 15.5 80.9375 13.125 78.4375 C13.125 80.0875 13.125 81.7375 13.125 83.4375 C11.54320385 83.54617302 9.95922847 83.62339827 8.375 83.6875 C7.49328125 83.73390625 6.6115625 83.7803125 5.703125 83.828125 C2.24903404 83.30477788 1.19976591 82.21157316 -0.875 79.4375 C-2.95409456 72.66082857 -3.10953516 65.47355477 -2.875 58.4375 C-1.885 57.9425 -1.885 57.9425 -0.875 57.4375 C-7.475 57.1075 -14.075 56.7775 -20.875 56.4375 C-20.875 53.1375 -20.875 49.8375 -20.875 46.4375 C-19.87597656 46.38851562 -18.87695312 46.33953125 -17.84765625 46.2890625 C-16.55730469 46.21429688 -15.26695312 46.13953125 -13.9375 46.0625 C-12.64972656 45.99289062 -11.36195313 45.92328125 -10.03515625 45.8515625 C-8.47087891 45.64660156 -8.47087891 45.64660156 -6.875 45.4375 C-6.545 44.7775 -6.215 44.1175 -5.875 43.4375 C-6.968125 43.169375 -8.06125 42.90125 -9.1875 42.625 C-14.10892719 41.04013362 -14.10892719 41.04013362 -15.875 38.4375 C-17.55323907 34.37439489 -17.875 31.94766173 -17.875 27.4375 C-14.575 27.4375 -11.275 27.4375 -7.875 27.4375 C-7.42125 28.571875 -6.9675 29.70625 -6.5 30.875 C-5.30404194 34.48471692 -5.30404194 34.48471692 -2.875 35.4375 C-2.545 33.4575 -2.215 31.4775 -1.875 29.4375 C-2.679375 29.045625 -3.48375 28.65375 -4.3125 28.25 C-6.875 26.4375 -6.875 26.4375 -7.6875 23.75 C-7.749375 22.986875 -7.81125 22.22375 -7.875 21.4375 C-8.390625 21.7675 -8.90625 22.0975 -9.4375 22.4375 C-12.65526512 23.75760877 -15.4320528 23.56992105 -18.875 23.4375 C-18.875 20.4675 -18.875 17.4975 -18.875 14.4375 C-18.215 14.1075 -17.555 13.7775 -16.875 13.4375 C-16.02314527 10.9488354 -15.40395891 8.43101892 -14.75390625 5.8828125 C-12.193284 -1.24140763 -6.54534718 -0.04633129 0 0 Z " fill="#065FAD" transform="translate(731.875,388.5625)"/>
<path d="M0 0 C1.24703957 -0.01248528 1.24703957 -0.01248528 2.51927185 -0.02522278 C5.26558116 -0.04930488 8.01165297 -0.05809196 10.75805664 -0.06469727 C12.66850353 -0.07366378 14.5789497 -0.08278563 16.48939514 -0.09205627 C20.49327298 -0.10854312 24.49706721 -0.11624604 28.50097656 -0.11914062 C33.63041425 -0.12452922 38.75906621 -0.16223022 43.88828182 -0.20788479 C47.83369314 -0.23762947 51.77891447 -0.24486359 55.72442818 -0.24586678 C57.61548022 -0.25007294 59.50653264 -0.26252312 61.39747429 -0.28338432 C64.0429149 -0.31025016 66.68652375 -0.30548866 69.33203125 -0.29296875 C70.1119342 -0.30780304 70.89183716 -0.32263733 71.69537354 -0.33792114 C75.52574523 -0.28631653 77.55526233 0.18334453 80.71618652 2.4002533 C83.21636379 6.00699344 83.35846371 8.03649533 83.36181641 12.40405273 C83.36897171 13.09900848 83.37612701 13.79396423 83.38349915 14.50997925 C83.40034652 16.79696291 83.38101017 19.08197505 83.35961914 21.36889648 C83.36044822 22.96403159 83.36290908 24.55916661 83.3669281 26.15429688 C83.36978335 29.49334506 83.35511256 32.83172144 83.32763672 36.1706543 C83.29355357 40.4447832 83.29957426 44.71771119 83.31829929 48.99189758 C83.32888189 52.28456584 83.3199202 55.57695598 83.30491447 58.86959839 C83.29974139 60.44521254 83.30020386 62.02085584 83.30645943 63.59646606 C83.31192724 65.80118983 83.29149035 68.0042107 83.26416016 70.20874023 C83.25796158 71.46162842 83.251763 72.7145166 83.24537659 74.00537109 C82.63757678 77.9037665 81.52106047 79.5617262 78.73071289 82.30639648 C75.24392505 83.4686591 72.13067169 83.43879745 68.50537109 83.41992188 C67.77341522 83.4200679 67.04145935 83.42021393 66.287323 83.42036438 C63.8686832 83.41966788 61.45012048 83.41188777 59.03149414 83.40405273 C57.35426373 83.40218762 55.67703278 83.40076416 53.99980164 83.39976501 C49.58570857 83.39594718 45.17164842 83.38612314 40.75756836 83.37506104 C36.25317836 83.36483115 31.74878304 83.36026401 27.24438477 83.35522461 C18.40647968 83.34450024 9.56859902 83.3274326 0.73071289 83.30639648 C1.2169496 79.82887081 1.60042596 77.52536691 3.41503906 74.47558594 C8.7921054 70.95778648 14.52350744 71.57845923 20.78149414 71.59936523 C22.16442537 71.58624249 23.54733745 71.57093647 24.93022156 71.55354309 C28.55854432 71.51374605 32.18636511 71.50350623 35.81488037 71.49951172 C39.52200254 71.49017004 43.22884006 71.45302024 46.93579102 71.41772461 C54.2011431 71.3505847 61.4645591 71.32971942 68.73071289 71.30639648 C68.73071289 51.83639648 68.73071289 32.36639648 68.73071289 12.30639648 C45.63071289 12.30639648 22.53071289 12.30639648 -1.26928711 12.30639648 C-1.59928711 35.73639648 -1.92928711 59.16639648 -2.26928711 83.30639648 C-6.55928711 83.30639648 -10.84928711 83.30639648 -15.26928711 83.30639648 C-15.3388254 73.48362641 -15.39211785 63.66091498 -15.42472363 53.8379488 C-15.4403735 49.27664299 -15.46159937 44.7155057 -15.49560547 40.15429688 C-15.52822314 35.75171949 -15.54614523 31.34930412 -15.55391884 26.94661522 C-15.55945803 25.26769651 -15.57027476 23.58878657 -15.58647728 21.9099369 C-15.60828388 19.55662564 -15.61125273 17.20398214 -15.60986328 14.85058594 C-15.62604202 13.81156631 -15.62604202 13.81156631 -15.64254761 12.7515564 C-15.6150114 8.43583656 -14.98674104 5.69157466 -12.26928711 2.30639648 C-8.68518649 -0.46823798 -4.3367528 0.00368643 0 0 Z " fill="#CA040E" transform="translate(562.269287109375,388.693603515625)"/>
<path d="M0 0 C13.93150685 0 13.93150685 0 18.75 4.7109375 C23.33992265 9.68952295 27.48504659 15.06175779 31.6159668 20.4230957 C36.2579809 26.427757 41.12573995 32.15088794 46 38 C46.33 25.46 46.66 12.92 47 0 C51.95 0 56.9 0 62 0 C62 20.79 62 41.58 62 63 C49.14237288 63 49.14237288 63 42.61328125 56.6953125 C37.09560776 50.53125621 31.88837789 44.20061712 26.8359375 37.65234375 C23.2726865 33.06330837 19.62947304 28.5368413 16 24 C15.67 36.87 15.34 49.74 15 63 C10.05 63 5.1 63 0 63 C0 42.21 0 21.42 0 0 Z " fill="#CA030D" transform="translate(572,295)"/>
<path d="M0 0 C5.28 0 10.56 0 16 0 C16 8.25 16 16.5 16 25 C24.58 25 33.16 25 42 25 C42 16.75 42 8.5 42 0 C47.28 0 52.56 0 58 0 C58 20.79 58 41.58 58 63 C52.72 63 47.44 63 42 63 C42 54.75 42 46.5 42 38 C33.42 38 24.84 38 16 38 C16 46.25 16 54.5 16 63 C10.72 63 5.44 63 0 63 C0 42.21 0 21.42 0 0 Z " fill="#CD0F19" transform="translate(480,295)"/>
<path d="M0 0 C0.74886475 0.00523682 1.49772949 0.01047363 2.26928711 0.01586914 C3.07817383 0.0190918 3.88706055 0.02231445 4.72045898 0.02563477 C5.5705957 0.03401367 6.42073242 0.04239258 7.29663086 0.05102539 C8.15063477 0.05553711 9.00463867 0.06004883 9.88452148 0.06469727 C12.00108749 0.07652166 14.11761771 0.0944577 16.23413086 0.11352539 C17.00442566 1.78953057 17.77471505 3.46553823 18.54498291 5.14155579 C19.23689972 6.64708793 19.92883552 8.15261135 20.62078857 9.65812683 C22.54146701 13.83730202 24.46149598 18.01677382 26.38037109 22.19677734 C31.17125374 32.63472681 31.17125374 32.63472681 35.98640442 43.06149292 C36.77996143 44.77429049 37.57189995 46.48783765 38.36376953 48.20141602 C39.30100096 50.22886367 40.24115119 52.25496524 41.18457031 54.27954102 C41.59408936 55.16706055 42.0036084 56.05458008 42.42553711 56.96899414 C42.77817627 57.72849365 43.13081543 58.48799316 43.49414062 59.27050781 C44.23413086 61.11352539 44.23413086 61.11352539 44.23413086 63.11352539 C39.28413086 63.11352539 34.33413086 63.11352539 29.23413086 63.11352539 C26.92413086 58.16352539 24.61413086 53.21352539 22.23413086 48.11352539 C12.00413086 47.78352539 1.77413086 47.45352539 -8.76586914 47.11352539 C-9.75586914 50.08352539 -10.74586914 53.05352539 -11.76586914 56.11352539 C-12.73968873 58.45790588 -13.73027616 60.79576966 -14.76586914 63.11352539 C-19.71586914 63.11352539 -24.66586914 63.11352539 -29.76586914 63.11352539 C-29.04022698 59.48531459 -28.51667292 57.22439496 -27.01928711 54.03613281 C-26.66156219 53.2673027 -26.30383728 52.4984726 -25.93527222 51.7063446 C-25.35255051 50.47510612 -25.35255051 50.47510612 -24.75805664 49.21899414 C-24.15249435 47.92146965 -24.15249435 47.92146965 -23.53469849 46.59773254 C-22.24187605 43.82973307 -20.94178452 41.06522931 -19.64086914 38.30102539 C-17.94801108 34.69163316 -16.25849152 31.08069103 -14.57055664 27.46899414 C-14.16005066 26.59226044 -13.74954468 25.71552673 -13.32659912 24.81222534 C-10.39268414 18.52326522 -7.56565235 12.19407465 -4.84005737 5.8120575 C-2.41127582 0.15501773 -2.41127582 0.15501773 0 0 Z " fill="#065EAD" transform="translate(807.765869140625,294.886474609375)"/>
<path d="M0 0 C0.74886475 0.00523682 1.49772949 0.01047363 2.26928711 0.01586914 C3.07817383 0.0190918 3.88706055 0.02231445 4.72045898 0.02563477 C5.5705957 0.03401367 6.42073242 0.04239258 7.29663086 0.05102539 C8.15063477 0.05553711 9.00463867 0.06004883 9.88452148 0.06469727 C12.00108749 0.07652166 14.11761771 0.0944577 16.23413086 0.11352539 C16.66121338 1.07838867 17.0882959 2.04325195 17.52832031 3.03735352 C19.5325052 7.5635955 21.53906563 12.08878179 23.54663086 16.61352539 C23.90806183 17.42820282 24.2694928 18.24288025 24.64187622 19.08224487 C29.69773013 30.47213931 34.80517445 41.8345355 40.04589844 53.14086914 C40.45735107 54.03032227 40.86880371 54.91977539 41.29272461 55.83618164 C41.6464917 56.59680908 42.00025879 57.35743652 42.36474609 58.14111328 C43.23413086 60.11352539 43.23413086 60.11352539 44.23413086 63.11352539 C39.28413086 63.11352539 34.33413086 63.11352539 29.23413086 63.11352539 C26.92413086 58.16352539 24.61413086 53.21352539 22.23413086 48.11352539 C12.00413086 47.78352539 1.77413086 47.45352539 -8.76586914 47.11352539 C-9.42586914 49.09352539 -10.08586914 51.07352539 -10.76586914 53.11352539 C-12.33958797 56.49940529 -14.05959143 59.79077407 -15.76586914 63.11352539 C-20.38586914 63.11352539 -25.00586914 63.11352539 -29.76586914 63.11352539 C-29.05669483 59.56765381 -28.57875477 57.35595496 -27.12695312 54.25146484 C-26.79247665 53.52913162 -26.45800018 52.8067984 -26.11338806 52.06257629 C-25.74991776 51.29177231 -25.38644745 50.52096832 -25.01196289 49.72680664 C-24.63282242 48.91092575 -24.25368195 48.09504486 -23.86305237 47.25444031 C-22.64824347 44.6425631 -21.42617045 42.03416904 -20.20336914 39.42602539 C-18.61638532 36.02737783 -17.03259476 32.62724988 -15.44946289 29.22680664 C-15.05987396 28.39190704 -14.67028503 27.55700745 -14.26889038 26.69680786 C-11.16475056 20.02534526 -8.16112875 13.31224096 -5.21812439 6.56819153 C-2.40333957 0.15450752 -2.40333957 0.15450752 0 0 Z " fill="#CB050F" transform="translate(668.765869140625,294.886474609375)"/>
<path d="M0 0 C3.96 0 7.92 0 12 0 C12 9.9 12 19.8 12 30 C12.66 30 13.32 30 14 30 C14.33 20.43 14.66 10.86 15 1 C16.98 1 18.96 1 21 1 C21.02943124 4.79164991 21.0469419 8.58326979 21.0625 12.375 C21.07087891 13.43589844 21.07925781 14.49679687 21.08789062 15.58984375 C21.14217557 33.28673664 21.14217557 33.28673664 18 38 C14.875 38.6875 14.875 38.6875 12 39 C12.17128418 39.64960693 12.34256836 40.29921387 12.51904297 40.96850586 C13.30613627 43.95770657 14.0905834 46.94759581 14.875 49.9375 C15.14441406 50.95908203 15.41382813 51.98066406 15.69140625 53.03320312 C17.25449091 58.99961166 18.7046465 64.9696893 20 71 C21.32 71 22.64 71 24 71 C24.66 67.04 25.32 63.08 26 59 C29.63 59 33.26 59 37 59 C36.79822665 61.90011553 36.56479333 64.79170839 36.3125 67.6875 C36.25900391 68.50412109 36.20550781 69.32074219 36.15039062 70.16210938 C35.74024913 74.56667244 35.40029962 76.52026107 32.48046875 80.01953125 C31.66191406 80.67308594 30.84335937 81.32664062 30 82 C29.67 82.33 29.34 82.66 29 83 C26.56355304 83.20798937 24.19031774 83.32444728 21.75 83.375 C20.74646484 83.43107422 20.74646484 83.43107422 19.72265625 83.48828125 C15.80928187 83.55747647 14.18046878 83.14500654 11.09765625 80.66796875 C7.83196665 76.51440079 7 73.24449389 7 68 C6.34 68 5.68 68 5 68 C4.97421875 68.59167969 4.9484375 69.18335938 4.921875 69.79296875 C4.54454807 75.04981899 3.94197007 78.17748357 0 82 C-3.42932071 83.71466036 -7.21716065 83.05404056 -11 83 C-11 79.37 -11 75.74 -11 72 C-9.515 71.505 -9.515 71.505 -8 71 C-7.22668036 68.60015507 -6.66323804 66.36313292 -6.17578125 63.90234375 C-6.02465378 63.19348526 -5.87352631 62.48462677 -5.71781921 61.75428772 C-5.23688808 59.48444337 -4.77454048 57.21125709 -4.3125 54.9375 C-3.99014676 53.40013547 -3.66659423 51.86302189 -3.34179688 50.32617188 C-2.54724043 46.55355481 -1.76933164 42.77783823 -1 39 C-1.78890625 38.86464844 -2.5778125 38.72929687 -3.390625 38.58984375 C-6.27458709 37.93793016 -7.18502516 37.26871854 -9 35 C-10.47905238 32.04189524 -10.12190903 29.0452845 -10.09765625 25.8046875 C-10.0962413 25.09724396 -10.09482635 24.38980042 -10.09336853 23.66091919 C-10.087766 21.39890331 -10.07521318 19.13698602 -10.0625 16.875 C-10.05748532 15.34244935 -10.05292236 13.80989714 -10.04882812 12.27734375 C-10.03779577 8.51819112 -10.02052952 4.75911228 -10 1 C-8.02 1 -6.04 1 -4 1 C-2.80851064 20.34042553 -2.80851064 20.34042553 -3 30 C-2.01 30 -1.02 30 0 30 C0 20.1 0 10.2 0 0 Z " fill="#075FAE" transform="translate(690,389)"/>
<path d="M0 0 C1.25668488 0.00212242 1.25668488 0.00212242 2.53875732 0.00428772 C5.20816657 0.00987428 7.8774912 0.02242431 10.546875 0.03515625 C12.35937379 0.04017299 14.17187389 0.04473559 15.984375 0.04882812 C20.42190748 0.05983931 24.85937691 0.0770947 29.296875 0.09765625 C29.296875 3.72765625 29.296875 7.35765625 29.296875 11.09765625 C28.34844727 11.1227124 27.40001953 11.14776855 26.42285156 11.17358398 C22.89669468 11.26884465 19.37069541 11.36807066 15.84472656 11.4699707 C14.32003114 11.51322332 12.79529031 11.5549051 11.27050781 11.5949707 C9.07603278 11.65290828 6.88178432 11.7165342 4.6875 11.78125 C3.66852631 11.80631874 3.66852631 11.80631874 2.62896729 11.83189392 C-0.60851052 11.93273097 -3.60082104 12.12904801 -6.703125 13.09765625 C-6.7959375 14.98484375 -6.7959375 14.98484375 -6.890625 16.91015625 C-6.92542969 17.61785156 -6.96023438 18.32554687 -6.99609375 19.0546875 C-6.61227283 21.73119873 -5.80569723 22.4353737 -3.703125 24.09765625 C-1.55222997 24.53586269 -1.55222997 24.53586269 0.83203125 24.46875 C1.71963135 24.48325195 2.60723145 24.49775391 3.52172852 24.51269531 C4.45815186 24.52010742 5.3945752 24.52751953 6.359375 24.53515625 C15.26849344 24.78601091 23.03784228 25.05157516 29.796875 31.47265625 C33.18876962 37.40847184 34.46686924 43.3218635 33.296875 50.09765625 C30.8946418 55.31990233 27.74911943 59.86083802 22.296875 62.09765625 C17.70121808 63.31394961 13.21230785 63.22553576 8.49609375 63.1953125 C7.65971878 63.19389755 6.82334381 63.1924826 5.96162415 63.19102478 C3.302504 63.18544809 0.6434695 63.1728999 -2.015625 63.16015625 C-3.82356649 63.15513824 -5.6315093 63.15057586 -7.43945312 63.14648438 C-11.86070984 63.13548629 -16.28190293 63.11823775 -20.703125 63.09765625 C-20.703125 59.13765625 -20.703125 55.17765625 -20.703125 51.09765625 C-19.68887451 51.0726001 -18.67462402 51.04754395 -17.62963867 51.02172852 C-13.86681473 50.9275598 -10.10417131 50.8273622 -6.34155273 50.7253418 C-4.71301496 50.68202876 -3.08443284 50.64035107 -1.45581055 50.6003418 C0.88506435 50.54255122 3.22571676 50.47888227 5.56640625 50.4140625 C6.29463089 50.39735001 7.02285553 50.38063751 7.77314758 50.36341858 C10.85854439 50.27298387 13.34859478 50.08041632 16.296875 49.09765625 C16.4825 47.24140625 16.4825 47.24140625 16.671875 45.34765625 C16.74148438 44.6515625 16.81109375 43.95546875 16.8828125 43.23828125 C16.12422394 40.46690438 14.72745149 39.32433647 12.29833984 37.86572266 C7.36756253 35.97352634 1.72687108 36.63060502 -3.47265625 36.69726562 C-10.05350313 36.62053421 -14.70351371 35.57035145 -19.703125 31.09765625 C-23.3004344 26.30103637 -24.41858017 21.52596185 -24.15234375 15.55859375 C-23.11116411 9.85474009 -20.08764171 6.19961853 -15.640625 2.66015625 C-10.45751682 -0.09681619 -5.78791633 -0.03685495 0 0 Z " fill="#0860AE" transform="translate(875.703125,294.90234375)"/>
<path d="M0 0 C1.20056534 -0.00065712 1.20056534 -0.00065712 2.42538452 -0.00132751 C5.06606597 0.00075946 7.7061094 0.02408587 10.34667969 0.04760742 C12.17941949 0.05320371 14.01216378 0.05747365 15.84490967 0.06047058 C20.66516543 0.07191678 25.48514937 0.10138206 30.30529785 0.13458252 C35.22530439 0.16528822 40.14535492 0.17897699 45.06542969 0.1940918 C54.71659068 0.22625194 64.36755007 0.27744563 74.01855469 0.34057617 C74.01855469 3.64057617 74.01855469 6.94057617 74.01855469 10.34057617 C49.26855469 10.67057617 24.51855469 11.00057617 -0.98144531 11.34057617 C-1.64144531 12.66057617 -2.30144531 13.98057617 -2.98144531 15.34057617 C22.42855469 15.34057617 47.83855469 15.34057617 74.01855469 15.34057617 C74.01855469 18.31057617 74.01855469 21.28057617 74.01855469 24.34057617 C42.33855469 24.34057617 10.65855469 24.34057617 -21.98144531 24.34057617 C-21.98144531 21.04057617 -21.98144531 17.74057617 -21.98144531 14.34057617 C-21.25957031 14.19620117 -20.53769531 14.05182617 -19.79394531 13.90307617 C-16.06038646 11.82887681 -15.08934216 9.31114152 -13.29003906 5.53198242 C-10.01486386 0.04728604 -5.96745942 -0.08554724 0 0 Z " fill="#025CAC" transform="translate(833.9814453125,388.659423828125)"/>
<path d="M0 0 C11.25699785 -0.06951197 22.51394463 -0.12281744 33.7711134 -0.15543652 C38.99828358 -0.17109208 44.22530691 -0.19232852 49.45239258 -0.22631836 C54.49686947 -0.25891546 59.54120511 -0.27685384 64.58577919 -0.28463173 C66.51031022 -0.29017459 68.43483353 -0.30099841 70.35930443 -0.31719017 C73.05505451 -0.33896904 75.75022101 -0.34196673 78.44604492 -0.34057617 C79.24158279 -0.351362 80.03712067 -0.36214783 80.85676575 -0.3732605 C85.41193753 -0.34783706 88.39039628 0.14540395 92 3 C93.63945963 6.27891925 93.12030178 9.90613534 93.09765625 13.5078125 C93.0962413 14.34843231 93.09482635 15.18905212 93.09336853 16.05514526 C93.08776237 18.74513275 93.07520886 21.43503759 93.0625 24.125 C93.05748579 25.94661338 93.05292275 27.76822807 93.04882812 29.58984375 C93.03779094 34.05992777 93.0205222 38.52994986 93 43 C94.32 43 95.64 43 97 43 C97 46.96 97 50.92 97 55 C88.11328125 55.5859375 88.11328125 55.5859375 85 55 C80 49 80 49 79 11 C52.93 10.67 26.86 10.34 0 10 C0 6.7 0 3.4 0 0 Z " fill="#075FAE" transform="translate(812,417)"/>
<path d="M0 0 C1.98 0 3.96 0 6 0 C2.14578588 17.85649203 2.14578588 17.85649203 -2 26 C-2.99 26 -3.98 26 -5 26 C-5 29.3 -5 32.6 -5 36 C1.91295034 35.72728459 1.91295034 35.72728459 8 33 C9.01703173 30.45025847 9.88887259 27.99044446 10.6875 25.375 C10.91244141 24.66859375 11.13738281 23.9621875 11.36914062 23.234375 C11.92227901 21.49257755 12.46240363 19.74665697 13 18 C15.41983869 21.62975804 16.53455417 25.28626842 17.90234375 29.40625 C18.99153786 31.98000407 20.05065381 33.08952966 22 35 C22 35.99 22 36.98 22 38 C23.65 38 25.3 38 27 38 C27.495 44.93 27.495 44.93 28 52 C29.32 52 30.64 52 32 52 C32 55.63 32 59.26 32 63 C22.6710311 63.49099836 22.6710311 63.49099836 19.4375 61.125 C18 59 18 59 17 57 C16.67 58.98 16.34 60.96 16 63 C7.37757848 63.76681614 7.37757848 63.76681614 4 61.88671875 C2.375 60.5 2.375 60.5 0 58 C0 59.65 0 61.3 0 63 C-1.58179615 63.10867302 -3.16577153 63.18589827 -4.75 63.25 C-5.63171875 63.29640625 -6.5134375 63.3428125 -7.421875 63.390625 C-10.87596596 62.86727788 -11.92523409 61.77407316 -14 59 C-16.07909456 52.22332857 -16.23453516 45.03605477 -16 38 C-15.01 37.505 -15.01 37.505 -14 37 C-14.33 36.34 -14.66 35.68 -15 35 C-14.2265625 34.63003906 -13.453125 34.26007813 -12.65625 33.87890625 C-9.31100054 31.51263421 -8.76610401 29.80363904 -7.5 25.9375 C-7.09394531 24.70644531 -6.68789063 23.47539062 -6.26953125 22.20703125 C-4.01258047 14.85202696 -1.98055823 7.43341428 0 0 Z " fill="#ECF3F8" transform="translate(745,409)"/>
<path d="M0 0 C3.96 0 7.92 0 12 0 C12 2.31 12 4.62 12 7 C14.64 7 17.28 7 20 7 C20.309375 6.195625 20.61875 5.39125 20.9375 4.5625 C22 2 22 2 23 1 C25.35313555 0.92728259 27.70833668 0.91629132 30.0625 0.9375 C31.35285156 0.94652344 32.64320313 0.95554687 33.97265625 0.96484375 C34.97167969 0.97644531 35.97070312 0.98804688 37 1 C36.34 2.98 35.68 4.96 35 7 C37.64 7 40.28 7 43 7 C43 10.63 43 14.26 43 18 C32.77 18 22.54 18 12 18 C12 25.59 12 33.18 12 41 C8.04 41 4.08 41 0 41 C0 33.41 0 25.82 0 18 C-10.23 18 -20.46 18 -31 18 C-31 14.37 -31 10.74 -31 7 C-28.36 6.67 -25.72 6.34 -23 6 C-23.66 4.35 -24.32 2.7 -25 1 C-22.56065775 0.86498106 -20.12875896 0.76596103 -17.6875 0.6875 C-16.65206055 0.6246582 -16.65206055 0.6246582 -15.59570312 0.56054688 C-13.57421875 0.51171875 -13.57421875 0.51171875 -10 1 C-8.25 3.46875 -8.25 3.46875 -7 6 C-3.40080577 6.89592083 -3.40080577 6.89592083 0 7 C0 4.69 0 2.38 0 0 Z " fill="#045DAD" transform="translate(844,431)"/>
<path d="M0 0 C19.32843838 -0.20571684 38.52704373 0.35814153 57.82519531 1.33239746 C60.69250455 1.47506697 63.56016977 1.6097223 66.42786312 1.74441433 C69.21351996 1.87599216 71.99896781 2.01161528 74.7843647 2.14857674 C76.73416055 2.24398078 78.68408843 2.33667414 80.63401794 2.42930603 C81.80787552 2.48929276 82.98173309 2.54927948 84.19116211 2.61108398 C85.22003036 2.66215805 86.24889862 2.71323212 87.3089447 2.76585388 C89.69042687 2.97306434 91.75135855 3.19634258 94 4 C96.14197494 6.90696599 97 8.35521088 97 12 C92.14200431 12.75393116 87.36640556 13.21888477 82.45092773 13.48071289 C81.73112228 13.5198732 81.01131683 13.55903351 80.2696991 13.59938049 C77.90782177 13.72698492 75.54573294 13.85000208 73.18359375 13.97265625 C71.52318952 14.06073998 69.86279436 14.14899469 68.20240784 14.2374115 C64.7251323 14.42182925 61.24774481 14.60392589 57.77026367 14.78442383 C53.35147262 15.01399901 48.93303276 15.24968231 44.51466274 15.48720646 C41.08376192 15.67088069 37.65268271 15.85103501 34.22154427 16.03021049 C32.59468816 16.11561032 30.96788889 16.20210119 29.3411541 16.28978157 C19.54243675 16.81581896 9.81640746 17.08746851 0 17 C0 11.39 0 5.78 0 0 Z " fill="#086FBB" transform="translate(255,318)"/>
<path d="M0 0 C3.3 0 6.6 0 10 0 C10 0.99 10 1.98 10 3 C12.64 3 15.28 3 18 3 C18 2.34 18 1.68 18 1 C20.97 1 23.94 1 27 1 C27.1953125 7.0546875 27.1953125 7.0546875 27 9 C25 11 25 11 21.9609375 11.1953125 C20.77757812 11.17210937 19.59421875 11.14890625 18.375 11.125 C17.18648437 11.10695313 15.99796875 11.08890625 14.7734375 11.0703125 C13.85820313 11.04710937 12.94296875 11.02390625 12 11 C12.2165625 12.04800781 12.433125 13.09601563 12.65625 14.17578125 C12.93765307 15.55465627 13.21889464 16.93356426 13.5 18.3125 C13.64308594 19.00279297 13.78617188 19.69308594 13.93359375 20.40429688 C14.52625044 23.32524773 15 26.01108122 15 29 C15.66 29 16.32 29 17 29 C17.66 24.05 18.32 19.1 19 14 C21.64 14 24.28 14 27 14 C27.23355374 21.00661229 27.14266162 28.26880832 25 35 C22.47012739 37.47760252 21.59072964 38 18 38 C18.66 39.65 19.32 41.3 20 43 C22.31 43.33 24.62 43.66 27 44 C27 46.97 27 49.94 27 53 C25.10489301 53.08160748 23.20875496 53.13946459 21.3125 53.1875 C19.72888672 53.23970703 19.72888672 53.23970703 18.11328125 53.29296875 C14.59010283 52.96142749 12.7973635 52.13298967 10 50 C8.2884933 46.25098533 7.7588599 43.09938175 8 39 C5.69 39 3.38 39 1 39 C1 36.03 1 33.06 1 30 C2.65 30 4.3 30 6 30 C5.79503906 29.20335937 5.59007812 28.40671875 5.37890625 27.5859375 C5.10949219 26.52632813 4.84007812 25.46671875 4.5625 24.375 C4.29566406 23.33085937 4.02882813 22.28671875 3.75390625 21.2109375 C3.039493 18.16820335 2.51382554 15.08295325 2 12 C-8.89 11.67 -19.78 11.34 -31 11 C-31 8.36 -31 5.72 -31 3 C-20.77 3 -10.54 3 0 3 C0 2.01 0 1.02 0 0 Z " fill="#CB0510" transform="translate(598,404)"/>
<path d="M0 0 C12.88004561 -0.13382417 25.69739373 0.27942583 38.5625 0.875 C40.56330417 0.96489566 42.56411815 1.05457313 44.56494141 1.14404297 C64.04685411 2.02215853 83.52427916 2.99469723 103 4 C104.35439668 6.70879335 104.06501451 9.00933268 104 12 C97.4246396 12.41153869 90.84909847 12.82009897 84.2734375 13.22680664 C82.04716018 13.36482944 79.82092155 13.50347797 77.59472656 13.64282227 C64.33682828 14.47218943 51.08111883 15.22494748 37.80908203 15.78833008 C33.80761948 15.95859572 29.81088642 16.18206317 25.8125 16.4140625 C23.87511979 16.4876018 21.9376206 16.55809321 20 16.625 C19.00484375 16.69589844 18.0096875 16.76679688 16.984375 16.83984375 C10.07639768 17.01531376 10.07639768 17.01531376 7.08984375 14.19824219 C4.03380781 9.77750224 2.07506449 4.93204828 0 0 Z " fill="#066DBA" transform="translate(257,344)"/>
<path d="M0 0 C0.81271362 0.00786026 1.62542725 0.01572052 2.46276855 0.02381897 C14.01339693 0.19702011 25.55363513 0.84731762 37.08740234 1.46118164 C41.07103822 1.67295186 45.05497057 1.8770873 49.0390625 2.08007812 C51.60549171 2.2130994 54.17189883 2.34654777 56.73828125 2.48046875 C58.49954346 2.57115883 58.49954346 2.57115883 60.29638672 2.66368103 C67.23221024 3.03547038 74.13879776 3.54880314 81.05078125 4.234375 C80.50354442 7.60900215 79.99588125 9.316725 78.05078125 12.234375 C75.99397278 12.73275757 75.99397278 12.73275757 73.41723633 12.90771484 C72.44711105 12.9799527 71.47698578 13.05219055 70.47746277 13.12661743 C69.41497818 13.1905368 68.35249359 13.25445618 67.2578125 13.3203125 C66.14807571 13.39752533 65.03833893 13.47473816 63.89497375 13.55429077 C60.28114977 13.79904281 56.66651576 14.01979455 53.05078125 14.234375 C51.26580231 14.34271667 51.26580231 14.34271667 49.44476318 14.45324707 C42.12184492 14.8920634 34.79732272 15.2906125 27.47094727 15.66699219 C23.69584788 15.86156203 19.92117439 16.06328352 16.14648438 16.265625 C13.70184491 16.39364988 11.25718416 16.52126907 8.8125 16.6484375 C7.70605637 16.70778473 6.59961273 16.76713196 5.4596405 16.82827759 C-1.68290928 17.18963609 -8.79796151 17.30206248 -15.94921875 17.234375 C-16.92713466 8.04952419 -16.92713466 8.04952419 -14.8359375 4.16796875 C-10.51710515 0.04770341 -5.68867392 -0.1061051 0 0 Z " fill="#056DBA" transform="translate(270.94921875,422.765625)"/>
<path d="M0 0 C-0.47050781 0.50789063 -0.94101562 1.01578125 -1.42578125 1.5390625 C-2.04839844 2.22742188 -2.67101562 2.91578125 -3.3125 3.625 C-3.92738281 4.29789062 -4.54226563 4.97078125 -5.17578125 5.6640625 C-10.25230545 12.16462239 -11.30940574 18.41620048 -10.47021484 26.53613281 C-9.2969975 32.68364547 -6.71833684 38.51653015 -4.29003906 44.25927734 C-1.52528438 50.91079609 -0.2110577 56.79048082 0 64 C-7.25720087 63.65441901 -11.93985351 61.96103509 -18 58 C-18.886875 57.443125 -19.77375 56.88625 -20.6875 56.3125 C-27.42514626 49.57485374 -31.23828456 40.86218467 -31.5 31.375 C-31.39486415 23.72434496 -29.06020122 18.3831048 -25 12 C-24.443125 11.07574219 -24.443125 11.07574219 -23.875 10.1328125 C-20.00857192 4.64589618 -12.74485884 1.05465151 -6.40625 -0.73046875 C-3.95259328 -1.00531017 -2.32596001 -0.77532 0 0 Z " fill="#065EAD" transform="translate(749,295)"/>
<path d="M0 0 C-0.886875 0.94875 -1.77375 1.8975 -2.6875 2.875 C-7.96683499 9.10737408 -11.94776951 15.80387296 -11.48828125 24.1796875 C-10.00430775 32.75111843 -6.46638822 40.86514449 -3.1875 48.875 C-1.06775057 54.23399152 -0.51490981 58.27593578 -1 64 C-8.14604151 64.66167051 -13.05853317 63.03642509 -19 59 C-26.23394393 52.68583588 -30.31885064 45.76586961 -31.4453125 36.23046875 C-32.08779914 25.82168418 -29.91795841 17.69546422 -22.94921875 9.625 C-16.71239485 3.59865506 -8.93094044 -0.94009899 0 0 Z " fill="#CA040E" transform="translate(445,294)"/>
<path d="M0 0 C6.6515625 -0.0309375 6.6515625 -0.0309375 13.4375 -0.0625 C14.83798584 -0.071604 16.23847168 -0.08070801 17.68139648 -0.09008789 C19.32217163 -0.09383423 19.32217163 -0.09383423 20.99609375 -0.09765625 C22.12200928 -0.10289307 23.2479248 -0.10812988 24.40795898 -0.11352539 C27 0 27 0 28 1 C28.08865208 3.8843382 28.11521296 6.74462158 28.09765625 9.62890625 C28.0962413 10.49313705 28.09482635 11.35736786 28.09336853 12.24778748 C28.08775239 15.01939292 28.07519719 17.7909188 28.0625 20.5625 C28.05748708 22.4368478 28.05292381 24.31119685 28.04882812 26.18554688 C28.03862681 30.79042021 28.01905467 35.3951206 28 40 C18.76 40 9.52 40 0 40 C0 26.8 0 13.6 0 0 Z " fill="#FEFAFB" transform="translate(469,410)"/>
<path d="M0 0 C18.08044424 -0.21440439 36.01593566 0.42906548 54.0625 1.5 C56.59827026 1.64517955 59.13407755 1.78971374 61.66992188 1.93359375 C67.78039261 2.28166386 73.89036651 2.63754477 80 3 C77.863501 7.62561361 75.22888204 11.09533894 71 14 C67.21808119 15.09645065 63.53146727 15.22880286 59.609375 15.33984375 C58.51014709 15.39652725 57.41091919 15.45321075 56.27838135 15.51161194 C52.76956512 15.68452646 49.26076929 15.8111838 45.75 15.9375 C43.43735921 16.04720136 41.12485419 16.15980561 38.8125 16.27539062 C25.86587339 16.89122232 12.95991597 17.10993941 0 17 C0 11.39 0 5.78 0 0 Z " fill="#086DB9" transform="translate(255,449)"/>
<path d="M0 0 C13.63665497 -0.11782824 27.23531492 0.18190117 40.859375 0.78735352 C43.30015048 0.88801586 45.74167585 0.97181726 48.18359375 1.03930664 C51.76071814 1.14023538 55.33172519 1.29679885 58.90625 1.46484375 C59.98765259 1.48401352 61.06905518 1.50318329 62.18322754 1.52293396 C69.78792878 1.96326077 73.34919128 4.27580119 78.4564209 9.88990784 C80 12 80 12 80 14 C72.67038624 14.3977884 65.34046254 14.78929017 58.01012135 15.17345428 C54.60383349 15.35215235 51.1976728 15.53276176 47.79174805 15.71826172 C31.84576814 16.58243095 15.97087354 17.23991298 0 17 C0 11.39 0 5.78 0 0 Z " fill="#046BB8" transform="translate(255,291)"/>
<path d="M0 0 C10.28861852 -0.08242368 20.52516898 0.14759926 30.8046875 0.62109375 C32.26383564 0.68616474 33.72299318 0.75102529 35.18215942 0.81568909 C38.20910619 0.95057765 41.23593491 1.08780081 44.26269531 1.22680664 C48.11856111 1.40372344 51.9746561 1.57491871 55.83085442 1.74441433 C58.83200044 1.87691789 61.83301063 2.01231566 64.83398819 2.14857674 C66.25554722 2.21280908 67.67714461 2.27619879 69.09878159 2.33868217 C76.43887365 2.66299138 83.70973667 3.07310223 91 4 C91 6.31 91 8.62 91 11 C62.67363776 12.82568753 34.38369877 14.48158936 6 15 C4.99539469 12.87717331 3.99644398 10.75166979 3 8.625 C2.443125 7.44164062 1.88625 6.25828125 1.3125 5.0390625 C0 2 0 2 0 0 Z " fill="#036EBA" transform="translate(273,371)"/>
<path d="M0 0 C4.95 0 9.9 0 15 0 C15 20.79 15 41.58 15 63 C10.05 63 5.1 63 0 63 C0 42.21 0 21.42 0 0 Z " fill="#CB0712" transform="translate(547,295)"/>
<path d="M0 0 C27.07280337 -0.66279933 53.99898902 1.22682481 81 3 C80.67 5.64 80.34 8.28 80 11 C78.67983887 11.05534912 77.35967773 11.11069824 75.99951172 11.16772461 C71.03816038 11.3762804 66.07692704 11.58754005 61.11572266 11.79956055 C58.98033661 11.890452 56.84492041 11.98063846 54.70947266 12.07006836 C40.51679389 12.64452967 40.51679389 12.64452967 26.34375 13.5625 C19.76343905 14.06840938 13.2218988 14.11391468 6.625 14.0625 C5.49578125 14.05798828 4.3665625 14.05347656 3.203125 14.04882812 C0.46868986 14.03724154 -2.26562328 14.02093457 -5 14 C-4.54363464 12.603522 -4.08480512 11.2078492 -3.625 9.8125 C-3.36976563 9.03519531 -3.11453125 8.25789063 -2.8515625 7.45703125 C-1.97793078 4.93632321 -1.00879602 2.46935722 0 0 Z " fill="#0281CA" transform="translate(280,398)"/>
<path d="M0 0 C26.73 0.33 53.46 0.66 81 1 C81.495 4.465 81.495 4.465 82 8 C80.02540185 9.97459815 76.15318763 9.18469019 73.45092773 9.20532227 C72.66074249 9.21522186 71.87055725 9.22512146 71.056427 9.23532104 C68.43218022 9.26702848 65.80791531 9.29172979 63.18359375 9.31640625 C61.36897803 9.33696781 59.5543672 9.35796406 57.73976135 9.37937927 C52.9541518 9.43468241 48.16849844 9.4840552 43.3828125 9.53222656 C38.50321536 9.58238157 33.62368215 9.63809888 28.74414062 9.69335938 C19.16281498 9.80104168 9.58143392 9.90246413 0 10 C-0.33 12.31 -0.66 14.62 -1 17 C-1.33 17 -1.66 17 -2 17 C-2.22949357 10.68892692 -1.43118322 6.4403245 0 0 Z " fill="#E62010" transform="translate(143,356)"/>
<path d="M0 0 C1.26650391 -0.01224609 2.53300781 -0.02449219 3.83789062 -0.03710938 C5.04509766 -0.03904297 6.25230469 -0.04097656 7.49609375 -0.04296875 C9.1675647 -0.04913208 9.1675647 -0.04913208 10.87280273 -0.05541992 C13.5625 0.1875 13.5625 0.1875 15.5625 2.1875 C15.82128906 4.00341797 15.82128906 4.00341797 15.828125 6.1796875 C15.83199219 7.36111328 15.83199219 7.36111328 15.8359375 8.56640625 C15.82820312 9.39011719 15.82046875 10.21382813 15.8125 11.0625 C15.82023438 11.87847656 15.82796875 12.69445312 15.8359375 13.53515625 C15.83335937 14.32535156 15.83078125 15.11554688 15.828125 15.9296875 C15.82586914 16.6501123 15.82361328 17.37053711 15.82128906 18.11279297 C15.52150065 20.51619102 14.80512584 22.11831604 13.5625 24.1875 C10.08180901 26.77362088 6.51542193 26.39033189 2.3125 26.3125 C1.04921875 26.29445313 -0.2140625 26.27640625 -1.515625 26.2578125 C-2.47984375 26.23460937 -3.4440625 26.21140625 -4.4375 26.1875 C-4.5703125 21.40625 -4.5703125 21.40625 -3.375 19.4375 C-0.53996091 17.60844252 2.25050975 17.49995191 5.5625 17.1875 C5.8925 14.2175 6.2225 11.2475 6.5625 8.1875 C2.2725 8.1875 -2.0175 8.1875 -6.4375 8.1875 C-6.4375 14.1275 -6.4375 20.0675 -6.4375 26.1875 C-9.0775 26.1875 -11.7175 26.1875 -14.4375 26.1875 C-14.46636751 22.04168113 -14.48425327 17.89588784 -14.5 13.75 C-14.50837891 12.56599609 -14.51675781 11.38199219 -14.52539062 10.16210938 C-14.52861328 9.03740234 -14.53183594 7.91269531 -14.53515625 6.75390625 C-14.54039307 5.71177979 -14.54562988 4.66965332 -14.55102539 3.59594727 C-14.26430418 -2.48685856 -4.59454343 0.00233107 0 0 Z " fill="#CB0711" transform="translate(581.4375,418.8125)"/>
<path d="M0 0 C19.32676531 -0.22541887 38.52893316 0.35823692 57.82519531 1.33239746 C60.69250455 1.47506697 63.56016977 1.6097223 66.42786312 1.74441433 C69.21351996 1.87599216 71.99896781 2.01161528 74.7843647 2.14857674 C76.73416055 2.24398078 78.68408843 2.33667414 80.63401794 2.42930603 C81.80787552 2.48929276 82.98173309 2.54927948 84.19116211 2.61108398 C85.22003036 2.66215805 86.24889862 2.71323212 87.3089447 2.76585388 C89.69150046 2.97315775 91.75854433 3.16899884 94 4 C95.25 6.5625 95.25 6.5625 96 9 C95.03849785 8.75601219 95.03849785 8.75601219 94.05757141 8.50709534 C90.04152659 7.84103809 86.14252332 7.86893435 82.07885742 7.88647461 C81.19055237 7.88632858 80.30224731 7.88618256 79.38702393 7.8860321 C76.45981376 7.88672707 73.53266775 7.8945 70.60546875 7.90234375 C68.57237279 7.90420941 66.53927638 7.90563261 64.50617981 7.90663147 C59.16161859 7.91044501 53.81708464 7.92026538 48.47253418 7.93133545 C43.01619842 7.94157457 37.55985823 7.94613445 32.10351562 7.95117188 C21.40233178 7.96188868 10.70116816 7.97895115 0 8 C0 5.36 0 2.72 0 0 Z " fill="#0287CE" transform="translate(255,318)"/>
<path d="M0 0 C8.25 0 16.5 0 25 0 C23.80729246 11.92707542 21.58170487 17.65077773 12.47265625 25.26953125 C7.06148438 29.05649671 1.63775486 31.28245765 -5 31 C-3.61453987 28.04346785 -1.97650284 25.51466804 -0.0625 22.875 C3.13233385 18.18039085 4.69324798 13.49065103 6 8 C4.02 8 2.04 8 0 8 C0 5.36 0 2.72 0 0 Z " fill="#045DAD" transform="translate(755,328)"/>
<path d="M0 0 C18.0786091 -0.23467968 36.01820729 0.42920029 54.0625 1.5 C56.59827026 1.64517955 59.13407755 1.78971374 61.66992188 1.93359375 C67.78039261 2.28166386 73.89036651 2.63754477 80 3 C78.63016497 6.16115776 78.0109362 6.9927092 75 9 C75 8.34 75 7.68 75 7 C73.48520302 7.24398781 73.48520302 7.24398781 71.93980408 7.49290466 C68.22222301 7.9713975 64.70778687 8.12049867 60.96313477 8.11352539 C60.29886978 8.11367142 59.6346048 8.11381744 58.95021057 8.1139679 C56.78057451 8.11327785 54.61102709 8.10552854 52.44140625 8.09765625 C50.92683458 8.09578884 49.41226231 8.09436646 47.89768982 8.09336853 C43.93081973 8.0895688 39.96398684 8.07976051 35.99713135 8.06866455 C31.94145206 8.05839546 27.8857667 8.05385918 23.83007812 8.04882812 C15.88670177 8.03813573 7.94335553 8.02109021 0 8 C0 5.36 0 2.72 0 0 Z " fill="#0293D6" transform="translate(255,449)"/>
<path d="M0 0 C15.08125109 -0.86178578 37.09707827 2.92139542 49 13 C43.65341725 14.04817685 38.36651814 14.32996422 32.9375 14.5625 C31.98536621 14.6049585 31.03323242 14.64741699 30.05224609 14.69116211 C20.03415821 15.10041656 10.02428625 15.09224803 0 15 C0 10.05 0 5.1 0 0 Z " fill="#046CB9" transform="translate(255,267)"/>
<path d="M0 0 C16.38811022 -0.31515597 32.66094722 0.87554062 49 2 C40.58215313 8.53425169 29.9784751 11.28223132 19.6875 13.375 C18.87667969 13.54249756 18.06585938 13.70999512 17.23046875 13.88256836 C11.41784433 14.97774323 5.9122228 15.13663804 0 15 C0 10.05 0 5.1 0 0 Z " fill="#066CB9" transform="translate(255,475)"/>
<path d="M0 0 C9.62659202 0.81928443 17.52190076 4.77551107 24 12 C29 19.29368932 29 19.29368932 29 24 C21.41 24 13.82 24 6 24 C1.73642403 15.80081545 0.16133945 9.22568333 0 0 Z " fill="#CA050F" transform="translate(446,294)"/>
<path d="M0 0 C10.28861852 -0.08242368 20.52516898 0.14759926 30.8046875 0.62109375 C32.26383564 0.68616474 33.72299318 0.75102529 35.18215942 0.81568909 C38.20910619 0.95057765 41.23593491 1.08780081 44.26269531 1.22680664 C48.11856111 1.40372344 51.9746561 1.57491871 55.83085442 1.74441433 C58.83200044 1.87691789 61.83301063 2.01231566 64.83398819 2.14857674 C66.25554722 2.21280908 67.67714461 2.27619879 69.09878159 2.33868217 C76.43887365 2.66299138 83.70973667 3.07310223 91 4 C91 4.99 91 5.98 91 7 C89.92822258 6.99607239 89.92822258 6.99607239 88.83479309 6.99206543 C69.44510927 6.93131075 50.07425031 7.13993446 30.6875 7.5 C27.97722283 7.54870373 25.266932 7.59662492 22.55664062 7.64453125 C16.03770985 7.76033606 9.51883569 7.87896642 3 8 C0 2.25 0 2.25 0 0 Z " fill="#0288CF" transform="translate(273,371)"/>
<path d="M0 0 C8.49640738 0.47202263 15.57278066 3.44709997 21.875 9.25 C25 13 25 13 29 22 C21.08 22 13.16 22 5 22 C1.68278698 13.70696745 -0.16830901 8.58375951 0 0 Z " fill="#065EAD" transform="translate(750,294)"/>
<path d="M0 0 C0.82709473 0.00193863 1.65418945 0.00387726 2.50634766 0.00587463 C14.11186052 0.10009478 25.6995439 0.76244904 37.28662109 1.37915039 C41.27025697 1.59092061 45.25418932 1.79505605 49.23828125 1.99804688 C51.80471046 2.13106815 54.37111758 2.26451652 56.9375 2.3984375 C58.69876221 2.48912758 58.69876221 2.48912758 60.49560547 2.58164978 C67.43142899 2.95343913 74.33801651 3.46677189 81.25 4.15234375 C80.92 5.80234375 80.59 7.45234375 80.25 9.15234375 C79.60710526 8.66436813 78.96421051 8.17639252 78.30183411 7.67362976 C74.22191639 5.63986202 70.91489732 5.75291047 66.4206543 5.81176758 C65.54210281 5.8113295 64.66355133 5.81089142 63.75837708 5.81044006 C60.86342914 5.81252492 57.96906513 5.83584174 55.07421875 5.859375 C53.0635459 5.86497203 51.05286896 5.86924162 49.04219055 5.87223816 C43.75671035 5.88367848 38.47147846 5.91313881 33.18609619 5.9463501 C27.79011392 5.97706842 22.39409143 5.99074727 16.99804688 6.00585938 C6.41525564 6.03800916 -4.16735151 6.08919582 -14.75 6.15234375 C-9.57913037 0.8453986 -7.25954724 -0.0276199 0 0 Z " fill="#0494D7" transform="translate(270.75,422.84765625)"/>
<path d="M0 0 C6.27 0 12.54 0 19 0 C17.70799742 7.75201546 14.69592608 12.30407392 9.1875 17.8125 C3.51057777 21.70842702 -1.93184426 24.72493905 -9 24 C-7.71262452 21.28220733 -6.25224478 18.93604763 -4.5 16.5 C-1.17983463 11.32876898 -0.75311246 6.0248997 0 0 Z " fill="#CC0D17" transform="translate(456,334)"/>
<path d="M0 0 C0.99530228 -0.00021904 0.99530228 -0.00021904 2.01071167 -0.0004425 C4.20753225 0.00025508 6.40426842 0.00804025 8.60107422 0.01586914 C10.12279209 0.01773387 11.64451056 0.01915751 13.16622925 0.02015686 C17.17427219 0.02397773 21.18227898 0.03380435 25.19030762 0.04486084 C29.27904776 0.05508421 33.36779373 0.05965647 37.45654297 0.06469727 C45.48129915 0.07542699 53.50602594 0.09249826 61.53076172 0.11352539 C61.20076172 1.10352539 60.87076172 2.09352539 60.53076172 3.11352539 C55.12362084 3.8370774 49.76199997 4.35290654 44.31591797 4.64868164 C43.5504213 4.69174942 42.78492462 4.7348172 41.99623108 4.77919006 C39.52878186 4.9156793 37.06108866 5.04655561 34.59326172 5.17602539 C33.75382019 5.22088074 32.91437866 5.26573608 32.04949951 5.31195068 C17.865749 6.06024353 3.7360125 6.38000196 -10.46923828 6.11352539 C-8.22386573 -0.14144099 -6.46706179 -0.01193185 0 0 Z " fill="#066CB9" transform="translate(285.46923828125,405.886474609375)"/>
<path d="M0 0 C13.775651 -0.23227746 27.48977864 0.37494369 41.24389648 1.11694336 C44.98170001 1.31484016 48.72016696 1.49234693 52.45898438 1.66992188 C54.8360039 1.79562565 57.21296014 1.92253314 59.58984375 2.05078125 C60.70737534 2.10091873 61.82490692 2.15105621 62.9763031 2.20271301 C64.00240189 2.26254868 65.02850067 2.32238434 66.08569336 2.3840332 C67.4410746 2.45398247 67.4410746 2.45398247 68.82383728 2.52534485 C71 3 71 3 73 6 C68.64846748 6.84330845 64.59704135 7.09693089 60.16845703 7.02172852 C59.51409164 7.01212097 58.85972626 7.00251343 58.18553162 6.99261475 C56.04284009 6.95988091 53.90036919 6.9194531 51.7578125 6.87890625 C50.26423905 6.85458001 48.77065765 6.83073774 47.27706909 6.80735779 C43.36107263 6.74476579 39.44521842 6.67562979 35.52935791 6.60510254 C31.52744989 6.53419319 27.52544165 6.46951185 23.5234375 6.40429688 C15.68218063 6.27560568 7.84106313 6.13999679 0 6 C0 4.02 0 2.04 0 0 Z " fill="#0698DA" transform="translate(255,291)"/>
<path d="M0 0 C12.88004561 -0.13382417 25.69739373 0.27942583 38.5625 0.875 C40.56330417 0.96489566 42.56411815 1.05457313 44.56494141 1.14404297 C64.04685411 2.02215853 83.52427916 2.99469723 103 4 C103 4.33 103 4.66 103 5 C101.56966179 4.99666908 101.56966179 4.99666908 100.11042786 4.99327087 C91.12042321 4.97299192 82.13042322 4.95800492 73.14040089 4.94818783 C68.51863972 4.9429711 63.89689702 4.93589537 59.27514648 4.92456055 C54.81422939 4.91368873 50.35333006 4.90771404 45.89240074 4.90512276 C44.19117643 4.90327626 42.48995308 4.89967053 40.78873634 4.89426994 C38.40446502 4.88700255 36.02026696 4.88601147 33.63598633 4.88647461 C32.93395584 4.88287933 32.23192535 4.87928406 31.50862122 4.87557983 C27.86427517 4.88323108 24.5534137 5.22369283 21 6 C17.74957196 5.99313532 14.51101581 5.92755646 11.26367188 5.78515625 C9.0753409 5.70463013 9.0753409 5.70463013 6 6 C5.01 7.485 5.01 7.485 4 9 C2.68 6.03 1.36 3.06 0 0 Z " fill="#13A2DE" transform="translate(257,344)"/>
<path d="M0 0 C9.5965245 -0.09261098 19.19289558 -0.16371944 28.78976917 -0.20724869 C33.24583005 -0.22813883 37.70158558 -0.2564821 42.1574707 -0.30175781 C46.45631098 -0.3451653 50.75485727 -0.36912636 55.05389977 -0.37950897 C56.69541745 -0.38690957 58.33691875 -0.4013611 59.97831154 -0.42292023 C62.27471524 -0.45188772 64.56989858 -0.45595898 66.86645508 -0.45410156 C68.17439529 -0.46298401 69.48233551 -0.47186646 70.82991028 -0.48101807 C74 0 74 0 77 4 C51.59 4 26.18 4 0 4 C0 2.68 0 1.36 0 0 Z " fill="#007DC6" transform="translate(255,297)"/>
<path d="M0 0 C1.12719452 0.01441132 1.12719452 0.01441132 2.27716064 0.02911377 C4.76079714 0.06209255 7.24425713 0.10242912 9.7277832 0.14282227 C11.4498482 0.16712448 13.17191973 0.19096799 14.89399719 0.21437073 C19.42651812 0.27720157 23.95892345 0.34627109 28.49133301 0.41662598 C33.11632014 0.48731842 37.74138924 0.55212994 42.36645508 0.61743164 C51.44141495 0.74643111 60.51626358 0.88201933 69.59106445 1.02172852 C70.08606445 2.50672852 70.08606445 2.50672852 70.59106445 4.02172852 C37.92106445 4.02172852 5.25106445 4.02172852 -28.40893555 4.02172852 C-28.40893555 3.03172852 -28.40893555 2.04172852 -28.40893555 1.02172852 C-26.51208008 1.03913086 -26.51208008 1.03913086 -24.5769043 1.05688477 C-22.91674952 1.06626417 -21.25659315 1.07536421 -19.59643555 1.08422852 C-18.76305664 1.09260742 -17.92967773 1.10098633 -17.07104492 1.10961914 C-15.86738281 1.11445313 -15.86738281 1.11445313 -14.6394043 1.11938477 C-13.90101318 1.12462158 -13.16262207 1.1298584 -12.40185547 1.13525391 C-8.19260043 0.89547642 -4.34523606 -0.07931729 0 0 Z " fill="#0284CB" transform="translate(290.408935546875,347.978271484375)"/>
<path d="M0 0 C3.3 0 6.6 0 10 0 C10.33 4.29 10.66 8.58 11 13 C12.32 13 13.64 13 15 13 C15 16.63 15 20.26 15 24 C5.6710311 24.49099836 5.6710311 24.49099836 2.4375 22.125 C0.39256892 19.1020584 -0.12305127 17.4732808 -0.09765625 13.8671875 C-0.09443359 13.06152344 -0.09121094 12.25585938 -0.08789062 11.42578125 C-0.07951172 10.58402344 -0.07113281 9.74226563 -0.0625 8.875 C-0.05798828 8.02550781 -0.05347656 7.17601562 -0.04882812 6.30078125 C-0.03702874 4.20049091 -0.01909306 2.1002367 0 0 Z " fill="#0960AE" transform="translate(746,448)"/>
<path d="M0 0 C10.56 0 21.12 0 32 0 C32 2.97 32 5.94 32 9 C21.44 9 10.88 9 0 9 C0 6.03 0 3.06 0 0 Z " fill="#CD101A" transform="translate(566,448)"/>
<path d="M0 0 C3.3 0 6.6 0 10 0 C10.33 4.29 10.66 8.58 11 13 C12.32 13 13.64 13 15 13 C15 16.63 15 20.26 15 24 C5.6710311 24.49099836 5.6710311 24.49099836 2.4375 22.125 C0.39256892 19.1020584 -0.12305127 17.4732808 -0.09765625 13.8671875 C-0.09443359 13.06152344 -0.09121094 12.25585938 -0.08789062 11.42578125 C-0.07951172 10.58402344 -0.07113281 9.74226563 -0.0625 8.875 C-0.05798828 8.02550781 -0.05347656 7.17601562 -0.04882812 6.30078125 C-0.03702874 4.20049091 -0.01909306 2.1002367 0 0 Z " fill="#0860AE" transform="translate(762,448)"/>
<path d="M0 0 C3.3 0 6.6 0 10 0 C10.33 4.29 10.66 8.58 11 13 C12.32 13 13.64 13 15 13 C15 16.63 15 20.26 15 24 C5.71553229 24.4886562 5.71553229 24.4886562 2.4375 22.25 C-0.47098079 17.69759529 -0.12286041 13.00599843 -0.0625 7.75 C-0.05798828 7.00492187 -0.05347656 6.25984375 -0.04882812 5.4921875 C-0.03709246 3.6614236 -0.0191585 1.83070127 0 0 Z " fill="#085FAE" transform="translate(730,448)"/>
<path d="M0 0 C4.62 0 9.24 0 14 0 C14.556875 1.134375 15.11375 2.26875 15.6875 3.4375 C17.4222876 6.55468831 17.4222876 6.55468831 20.75 7.9375 C21.4925 7.958125 22.235 7.97875 23 8 C23 10.97 23 13.94 23 17 C10.37302763 17.76889548 10.37302763 17.76889548 5.875 15.25 C3.06501104 10.37935248 1.59938467 5.3905187 0 0 Z " fill="#065EAD" transform="translate(864,453)"/>
<path d="M0 0 C4.62 0 9.24 0 14 0 C10.20385521 13.55765998 10.20385521 13.55765998 6.29296875 16.1171875 C3.33835104 17.25474048 0.90650451 17.19361966 -2.25 17.125 C-3.32765625 17.10695313 -4.4053125 17.08890625 -5.515625 17.0703125 C-6.33546875 17.04710937 -7.1553125 17.02390625 -8 17 C-8 14.03 -8 11.06 -8 8 C-6.02 7.67 -4.04 7.34 -2 7 C-1.34 4.69 -0.68 2.38 0 0 Z " fill="#035CAC" transform="translate(822,453)"/>
<path d="M0 0 C2.1848075 -0.00682962 4.36960701 -0.01707722 6.55438232 -0.03076172 C9.62714317 -0.04856651 12.69962416 -0.05291937 15.77243042 -0.05322266 C17.14938332 -0.06394051 17.14938332 -0.06394051 18.55415344 -0.07487488 C19.40075027 -0.07183853 20.24734711 -0.06880219 21.11959839 -0.06567383 C21.85451508 -0.06709885 22.58943176 -0.06852386 23.34661865 -0.06999207 C25.71424289 0.2143566 27.34455426 1.00563537 29.40524292 2.17724609 C29.40524292 2.50724609 29.40524292 2.83724609 29.40524292 3.17724609 C20.32201669 3.34986874 11.23868239 3.51625753 2.15524292 3.67724609 C1.15033121 3.69506197 1.15033121 3.69506197 0.12511826 3.71323776 C-21.78282903 4.09965192 -43.68329654 4.32406033 -65.59475708 4.17724609 C-65.59475708 3.18724609 -65.59475708 2.19724609 -65.59475708 1.17724609 C-43.7326334 0.5252148 -21.87250788 0.06128052 0 0 Z " fill="#0183CA" transform="translate(320.5947570800781,427.82275390625)"/>
<path d="M0 0 C19.40840032 -0.23669336 38.68243674 0.38784434 58.05834961 1.39068604 C61.67992882 1.57662367 65.30189489 1.75470948 68.92382812 1.93359375 C75.9495999 2.28168183 82.97493151 2.63797157 90 3 C90 3.33 90 3.66 90 4 C60.3 4 30.6 4 0 4 C0 2.68 0 1.36 0 0 Z " fill="#14A9E2" transform="translate(255,318)"/>
<path d="M0 0 C27.07280337 -0.66279933 53.99898902 1.22682481 81 3 C81 3.33 81 3.66 81 4 C53.94 4 26.88 4 -1 4 C-0.67 2.68 -0.34 1.36 0 0 Z " fill="#11A5E0" transform="translate(280,398)"/>
<path d="M0 0 C2.21484375 2.87109375 2.21484375 2.87109375 3.9375 6.4375 C4.52402344 7.61183594 5.11054687 8.78617187 5.71484375 9.99609375 C7 13 7 13 7 15 C2.05 15 -2.9 15 -8 15 C-12 7.96969697 -12 7.96969697 -12 3.625 C-11 1 -11 1 -9.375 -0.4375 C-5.87711137 -1.26594731 -3.47795621 -0.90630781 0 0 Z " fill="#CB0A14" transform="translate(706,343)"/>
<path d="M0 0 C0.66 0 1.32 0 2 0 C3.33934716 2.95564708 4.67044247 5.9149378 6 8.875 C6.3815625 9.71675781 6.763125 10.55851562 7.15625 11.42578125 C7.5171875 12.23144531 7.878125 13.03710938 8.25 13.8671875 C8.58515625 14.61081543 8.9203125 15.35444336 9.265625 16.12060547 C10 18 10 18 10 20 C3.73 20 -2.54 20 -9 20 C-6.75 13.25 -6.75 13.25 -5.2734375 10.3515625 C-4.9640625 9.73925781 -4.6546875 9.12695312 -4.3359375 8.49609375 C-3.86027344 7.56990234 -3.86027344 7.56990234 -3.375 6.625 C-2.88773438 5.66400391 -2.88773438 5.66400391 -2.390625 4.68359375 C-1.59742593 3.12052499 -0.79922969 1.55999378 0 0 Z " fill="#EBF2F7" transform="translate(814,310)"/>
<path d="M0 0 C3.43202302 2.77729863 4.91022334 6.64061811 6.6875 10.5625 C7.00783203 11.24763672 7.32816406 11.93277344 7.65820312 12.63867188 C10 17.72671242 10 17.72671242 10 20 C3.73 20 -2.54 20 -9 20 C-6.75 13.25 -6.75 13.25 -5.2734375 10.3515625 C-4.9640625 9.73925781 -4.6546875 9.12695312 -4.3359375 8.49609375 C-3.86027344 7.56990234 -3.86027344 7.56990234 -3.375 6.625 C-2.88773438 5.66400391 -2.88773438 5.66400391 -2.390625 4.68359375 C-1.59742593 3.12052499 -0.79922969 1.55999378 0 0 Z " fill="#FAECEC" transform="translate(675,310)"/>
<path d="M0 0 C12.86022545 -1.01975356 26.00888474 2.5588462 38 7 C38 7.33 38 7.66 38 8 C25.46 8 12.92 8 0 8 C0 5.36 0 2.72 0 0 Z " fill="#0386CD" transform="translate(255,267)"/>
<path d="M0 0 C10.39387359 -0.08834065 20.73868283 0.16489656 31.12109375 0.65625 C32.60179822 0.72380744 34.08251653 0.79106215 35.56324768 0.85803223 C39.40518185 1.03258762 43.24691781 1.2111718 47.08862305 1.39068604 C51.03097271 1.57415834 54.97350156 1.75369511 58.91601562 1.93359375 C66.61085453 2.2852784 74.30548772 2.64123263 82 3 C82 3.33 82 3.66 82 4 C55.93 4 29.86 4 3 4 C2.67 4.66 2.34 5.32 2 6 C1.34 4.02 0.68 2.04 0 0 Z " fill="#13A5E0" transform="translate(273,371)"/>
<path d="M0 0 C18.0786091 -0.23467968 36.01820729 0.42920029 54.0625 1.5 C56.59827026 1.64517955 59.13407755 1.78971374 61.66992188 1.93359375 C67.78039261 2.28166386 73.89036651 2.63754477 80 3 C80 3.33 80 3.66 80 4 C78.70191406 3.99476318 77.40382813 3.98952637 76.06640625 3.98413086 C70.0442815 3.96188673 64.02215624 3.94786545 58 3.9375 C56.92288757 3.93555634 55.84577515 3.93361267 54.73602295 3.93161011 C41.7883584 3.91523724 28.86880792 3.91480654 15.94140625 4.73217773 C10.48326941 5.05709258 5.42437449 4.73375807 0 4 C0 2.68 0 1.36 0 0 Z " fill="#17ACE4" transform="translate(255,449)"/>
<path d="M0 0 C0.33 0 0.66 0 1 0 C1.05401695 2.91691525 1.09368066 5.83282724 1.125 8.75 C1.15013672 9.9875 1.15013672 9.9875 1.17578125 11.25 C1.18222656 12.04921875 1.18867187 12.8484375 1.1953125 13.671875 C1.20578613 14.4050293 1.21625977 15.13818359 1.22705078 15.89355469 C0.96415093 18.33258685 0.26402139 19.90874244 -1 22 C-4.48069099 24.58612088 -8.04707807 24.20283189 -12.25 24.125 C-13.51328125 24.10695313 -14.7765625 24.08890625 -16.078125 24.0703125 C-17.04234375 24.04710937 -18.0065625 24.02390625 -19 24 C-19.1328125 19.21875 -19.1328125 19.21875 -17.9375 17.25 C-15.10246091 15.42094252 -12.31199025 15.31245191 -9 15 C-8.67 12.03 -8.34 9.06 -8 6 C-7.67 6 -7.34 6 -7 6 C-7 8.31 -7 10.62 -7 13 C-6.01 13 -5.02 13 -4 13 C-3.67 12.34 -3.34 11.68 -3 11 C-2.34 11.33 -1.68 11.66 -1 12 C-0.67 8.04 -0.34 4.08 0 0 Z " fill="#CF1B25" transform="translate(596,421)"/>
<path d="M0 0 C1.23046806 0.00936584 1.23046806 0.00936584 2.48579407 0.0189209 C14.96321371 0.1846727 27.42726151 0.93549021 39.88525391 1.60943604 C43.31849275 1.79406643 46.75203236 1.97292641 50.18554688 2.15234375 C56.86746923 2.50263467 63.54907889 2.85845224 70.23046875 3.21875 C70.23046875 3.54875 70.23046875 3.87875 70.23046875 4.21875 C59.96470867 4.26502383 49.69897327 4.30059393 39.43313026 4.32237434 C34.66664581 4.33282612 29.90023254 4.34701064 25.13378906 4.36962891 C20.53671948 4.39130773 15.93971851 4.40330812 11.34260178 4.40850449 C9.58585911 4.41220919 7.82912034 4.41944322 6.07240677 4.43021011 C3.61801187 4.44465924 1.16390302 4.44673073 -1.29052734 4.44580078 C-2.02204514 4.45299133 -2.75356293 4.46018188 -3.50724792 4.46759033 C-8.54142693 4.44685432 -8.54142693 4.44685432 -10.76953125 2.21875 C-7.06134816 -0.25337206 -4.28868046 -0.06225445 0 0 Z " fill="#18AEE5" transform="translate(270.76953125,422.78125)"/>
<path d="M0 0 C-0.66 1.32 -1.32 2.64 -2 4 C-2.495 3.01 -2.495 3.01 -3 2 C-4.51479698 2.24398781 -4.51479698 2.24398781 -6.06019592 2.49290466 C-9.77777699 2.9713975 -13.29221313 3.12049867 -17.03686523 3.11352539 C-17.70113022 3.11367142 -18.3653952 3.11381744 -19.04978943 3.1139679 C-21.21942549 3.11327785 -23.38897291 3.10552854 -25.55859375 3.09765625 C-27.07316542 3.09578884 -28.58773769 3.09436646 -30.10231018 3.09336853 C-34.06918027 3.0895688 -38.03601316 3.07976051 -42.00286865 3.06866455 C-46.05854794 3.05839546 -50.1142333 3.05385918 -54.16992188 3.04882812 C-62.11329823 3.03813573 -70.05664447 3.02109021 -78 3 C-78 2.34 -78 1.68 -78 1 C-69.74959057 0.86840558 -61.49916437 0.73793763 -53.2487154 0.60884857 C-49.41637117 0.5488524 -45.58403349 0.48849 -41.75170898 0.42724609 C-38.04289797 0.36799026 -34.33407212 0.30975458 -30.6252346 0.25218201 C-29.22089266 0.23021149 -27.81655611 0.2078933 -26.41222572 0.18519592 C-17.60728812 0.04316865 -8.80609181 -0.02945435 0 0 Z " fill="#0182CB" transform="translate(333,454)"/>
<path d="M0 0 C4.29 0 8.58 0 13 0 C13.09765625 6.93359375 13.09765625 6.93359375 13 9 C12 10 12 10 8.5625 10.4375 C4.95941003 10.64847551 4.95941003 10.64847551 3 13 C2.35232207 15.57061311 2.35232207 15.57061311 2 18 C1.34 17.67 0.68 17.34 0 17 C0 11.39 0 5.78 0 0 Z " fill="#FDFCFB" transform="translate(575,427)"/>
<path d="M0 0 C16.37122487 -0.44379826 32.67901586 0.87678411 49 2 C46.0447478 4.56030447 44.31948489 5.36942229 40.41503906 5.2487793 C39.51440735 5.22853195 38.61377563 5.20828461 37.68585205 5.18742371 C36.72217712 5.15006607 35.7585022 5.11270844 34.765625 5.07421875 C33.77246277 5.04777786 32.77930054 5.02133698 31.75604248 4.99409485 C28.58674637 4.90638778 25.41860306 4.7972175 22.25 4.6875 C20.10030161 4.62423551 17.95056157 4.56236965 15.80078125 4.50195312 C10.53326345 4.35085622 5.26653093 4.18213682 0 4 C0 2.68 0 1.36 0 0 Z " fill="#0DA9E3" transform="translate(255,475)"/>
<path d="M0 0 C12.39212488 -0.14457312 24.69199904 0.29263949 37.0625 1 C38.81573179 1.0967793 40.56898699 1.19313547 42.32226562 1.2890625 C46.5484615 1.52118953 50.7743039 1.75895293 55 2 C55 2.33 55 2.66 55 3 C36.65550418 4.02729177 18.36525575 4.11329046 0 4 C0 2.68 0 1.36 0 0 Z " fill="#29B5E7" transform="translate(255,291)"/>
<path d="M0 0 C-0.33 0.99 -0.66 1.98 -1 3 C-1 2.34 -1 1.68 -1 1 C-1.928125 1.33 -2.85625 1.66 -3.8125 2 C-23.81642476 8.2757411 -53.88852283 3 -75 3 C-75 2.34 -75 1.68 -75 1 C-49.99800845 0.38999748 -25.01096333 -0.20542237 0 0 Z " fill="#0073BF" transform="translate(330,456)"/>
<path d="M0 0 C1.79244141 0.01740234 1.79244141 0.01740234 3.62109375 0.03515625 C5.41740234 0.04869141 5.41740234 0.04869141 7.25 0.0625 C8.17683594 0.07410156 9.10367188 0.08570313 10.05859375 0.09765625 C10.38859375 0.75765625 10.71859375 1.41765625 11.05859375 2.09765625 C8.41859375 2.09765625 5.77859375 2.09765625 3.05859375 2.09765625 C3.71859375 8.69765625 4.37859375 15.29765625 5.05859375 22.09765625 C4.39859375 22.09765625 3.73859375 22.09765625 3.05859375 22.09765625 C3.05859375 20.11765625 3.05859375 18.13765625 3.05859375 16.09765625 C1.73859375 16.09765625 0.41859375 16.09765625 -0.94140625 16.09765625 C-0.99039063 15.09863281 -1.039375 14.09960938 -1.08984375 13.0703125 C-1.16460938 11.77996094 -1.239375 10.48960937 -1.31640625 9.16015625 C-1.38601563 7.87238281 -1.455625 6.58460938 -1.52734375 5.2578125 C-1.66398438 4.21496094 -1.800625 3.17210937 -1.94140625 2.09765625 C-2.60140625 1.76765625 -3.26140625 1.43765625 -3.94140625 1.09765625 C-2.94140625 0.09765625 -2.94140625 0.09765625 0 0 Z " fill="#F5F9FA" transform="translate(741.94140625,444.90234375)"/>
<path d="M0 0 C2.5215021 -0.08172936 5.04029917 -0.14083373 7.5625 -0.1875 C8.26697266 -0.21263672 8.97144531 -0.23777344 9.69726562 -0.26367188 C14.88003315 -0.33532304 18.36264182 0.67827402 23 3 C23 3.33 23 3.66 23 4 C17.82682579 5.06309567 12.87630664 5.11693938 7.625 5.0625 C6.79355469 5.05798828 5.96210938 5.05347656 5.10546875 5.04882812 C3.07028103 5.03713164 1.03513077 5.01919935 -1 5 C-0.67 3.35 -0.34 1.7 0 0 Z " fill="#046AB7" transform="translate(281,276)"/>
<path d="M0 0 C14.52 0 29.04 0 44 0 C40 3 40 3 37 4 C37 3.34 37 2.68 37 2 C24.79 2 12.58 2 0 2 C0 1.34 0 0.68 0 0 Z " fill="#048CD1" transform="translate(255,479)"/>
<path d="M0 0 C12.21 0 24.42 0 37 0 C37 0.66 37 1.32 37 2 C34.03 2.99 31.06 3.98 28 5 C27.67 4.34 27.34 3.68 27 3 C18.09 2.67 9.18 2.34 0 2 C0 1.34 0 0.68 0 0 Z " fill="#057BC5" transform="translate(255,481)"/>
<path d="M0 0 C0.66 0.99 1.32 1.98 2 3 C1.67 3.33 1.34 3.66 1 4 C25.09 4.33 49.18 4.66 74 5 C74 5.33 74 5.66 74 6 C49.25 6 24.5 6 -1 6 C-0.67 4.02 -0.34 2.04 0 0 Z " fill="#CE151C" transform="translate(564,466)"/>
<path d="M0 0 C10.06827169 -0.79836516 19.30801108 1.61165509 29 4 C29 4.33 29 4.66 29 5 C19.43 5 9.86 5 0 5 C0 3.35 0 1.7 0 0 Z " fill="#16ABE4" transform="translate(255,267)"/>
<path d="M0 0 C7.92 0 15.84 0 24 0 C24 1.32 24 2.64 24 4 C19.38 4 14.76 4 10 4 C10 3.34 10 2.68 10 2 C6.7 1.67 3.4 1.34 0 1 C0 0.67 0 0.34 0 0 Z " fill="#1478C0" transform="translate(336,405)"/>
<path d="M0 0 C2.64 0 5.28 0 8 0 C7.71758359 1.46015291 7.42373386 2.91809793 7.125 4.375 C6.96257813 5.18710937 6.80015625 5.99921875 6.6328125 6.8359375 C6 9 6 9 4 11 C3.67 9.35 3.34 7.7 3 6 C1.35 6 -0.3 6 -2 6 C-1.34 4.02 -0.68 2.04 0 0 Z " fill="#EEF4F8" transform="translate(728,399)"/>
<path d="M0 0 C14.35331148 -0.17991616 28.66161788 0.37824568 43 1 C43 1.33 43 1.66 43 2 C22.21 2.495 22.21 2.495 1 3 C0.67 2.01 0.34 1.02 0 0 Z " fill="#23B7EA" transform="translate(257,344)"/>
<path d="M0 0 C0.66 0.99 1.32 1.98 2 3 C2.66 3.66 3.32 4.32 4 5 C1.74035542 8.38946688 0.79270862 8.85336716 -3 10 C-5.8125 10.125 -5.8125 10.125 -8 10 C-6.23915938 6.0381086 -3.9706445 1.98532225 0 0 Z " fill="#035CAB" transform="translate(758,349)"/>
<path d="M0 0 C13.68290082 -0.2032114 27.33203763 0.4160716 41 1 C41 1.33 41 1.66 41 2 C39.85934082 1.98952637 38.71868164 1.97905273 37.54345703 1.96826172 C33.32050706 1.93212283 29.09757081 1.90912188 24.87451172 1.89013672 C23.04506127 1.88006516 21.21562697 1.86640724 19.38623047 1.84912109 C16.76005066 1.82492323 14.13408325 1.81352868 11.5078125 1.8046875 C10.68693146 1.79436493 9.86605042 1.78404236 9.02029419 1.77340698 C7.01210858 1.77300816 5.00444618 1.8775046 3 2 C2.34 2.66 1.68 3.32 1 4 C0.67 2.68 0.34 1.36 0 0 Z " fill="#23B7EA" transform="translate(273,371)"/>
<path d="M0 0 C0.66 0.33 1.32 0.66 2 1 C2 1.99 2 2.98 2 4 C1.01 4 0.02 4 -1 4 C-1.33 5.32 -1.66 6.64 -2 8 C-2 7.34 -2 6.68 -2 6 C-2.99 6.495 -2.99 6.495 -4 7 C-4.0825 7.61875 -4.165 8.2375 -4.25 8.875 C-5 11 -5 11 -7.9375 12.6875 C-9.4534375 13.3371875 -9.4534375 13.3371875 -11 14 C-11.99 14.495 -11.99 14.495 -13 15 C-11.38989473 10.92623969 -8.46177729 8.23492931 -5.375 5.25 C-4.859375 4.74339844 -4.34375 4.23679687 -3.8125 3.71484375 C-2.54616661 2.47196098 -1.2736856 1.23534724 0 0 Z " fill="#F7B00F" transform="translate(180,293)"/>
<path d="M0 0 C8.58 0 17.16 0 26 0 C24 2 24 2 21.87695312 2.1953125 C21.02037109 2.17210937 20.16378906 2.14890625 19.28125 2.125 C18.34925781 2.10953125 17.41726563 2.0940625 16.45703125 2.078125 C14.48567708 2.02604167 12.51432292 1.97395833 10.54296875 1.921875 C9.61097656 1.90640625 8.67898438 1.8909375 7.71875 1.875 C6.86216797 1.85179687 6.00558594 1.82859375 5.12304688 1.8046875 C2.78183775 1.7919251 2.78183775 1.7919251 1 4 C0.67 2.68 0.34 1.36 0 0 Z " fill="#0273BF" transform="translate(262,352)"/>
<path d="M0 0 C8.04212755 -0.16677223 15.98603754 0.3533402 24 1 C19.6157061 3.9228626 15.15603103 3.05647782 10.07226562 2.83398438 C8.04805431 2.78333543 6.02139351 2.88182623 4 3 C3.01 4.485 3.01 4.485 2 6 C1.34 4.02 0.68 2.04 0 0 Z " fill="#0A94D7" transform="translate(259,347)"/>
<path d="M0 0 C1.27875 0.144375 2.5575 0.28875 3.875 0.4375 C8.91280884 0.99814645 13.95536879 1.50501531 19 2 C19 2.33 19 2.66 19 3 C12.73 3 6.46 3 0 3 C0 2.01 0 1.02 0 0 Z " fill="#09ADE7" transform="translate(255,291)"/>
<path d="M0 0 C2 1 2 1 3.125 4.0625 C3.41375 5.031875 3.7025 6.00125 4 7 C2.02 7.99 2.02 7.99 0 9 C-2 7 -2 7 -2.125 3.875 C-2.08375 2.92625 -2.0425 1.9775 -2 1 C-1.34 0.67 -0.68 0.34 0 0 Z " fill="#E9560D" transform="translate(148,342)"/>
<path d="M0 0 C2.97 0.99 5.94 1.98 9 3 C9 3.33 9 3.66 9 4 C4.23692563 4.95261487 -0.1666528 5.08333357 -5 5 C-5 4.67 -5 4.34 -5 4 C-3.35 4 -1.7 4 0 4 C0 2.68 0 1.36 0 0 Z " fill="#2C81C3" transform="translate(295,276)"/>
<path d="M0 0 C2.125 0.375 2.125 0.375 4 1 C3.34 2.98 2.68 4.96 2 7 C0.68 7 -0.64 7 -2 7 C-2.125 4.625 -2.125 4.625 -2 2 C-1.34 1.34 -0.68 0.68 0 0 Z " fill="#CB0712" transform="translate(580,437)"/>
<path d="M0 0 C-2.69557909 2.75942175 -3.94740016 2.99899659 -7.890625 3.07421875 C-9.34512042 2.96182592 -10.79838312 2.83240522 -12.25 2.6875 C-12.99507813 2.62626953 -13.74015625 2.56503906 -14.5078125 2.50195312 C-16.33982155 2.3492857 -18.17014316 2.17660246 -20 2 C-20 1.67 -20 1.34 -20 1 C-6.3667426 -0.14806378 -6.3667426 -0.14806378 0 0 Z " fill="#0EA1DD" transform="translate(304,477)"/>
<path d="M0 0 C-1.65 1.98 -3.3 3.96 -5 6 C-5.66 5.34 -6.32 4.68 -7 4 C-6.67 3.34 -6.34 2.68 -6 2 C-6.99 1.67 -7.98 1.34 -9 1 C-5.8035914 -0.06546953 -3.34252724 -0.07427838 0 0 Z " fill="#D22C35" transform="translate(445,294)"/>
<path d="M0 0 C-0.60183749 2.02045442 -1.27306096 4.02111039 -2 6 C-2.99 6.495 -2.99 6.495 -4 7 C-4 6.34 -4 5.68 -4 5 C-4.99 4.67 -5.98 4.34 -7 4 C-6.34 3.67 -5.68 3.34 -5 3 C-5 2.34 -5 1.68 -5 1 C-2 0 -2 0 0 0 Z " fill="#EA5612" transform="translate(231,345)"/>
<path d="M0 0 C0.58265625 0.21527344 1.1653125 0.43054688 1.765625 0.65234375 C1.1675 0.92046875 0.569375 1.18859375 -0.046875 1.46484375 C-2.28948287 2.52181825 -2.28948287 2.52181825 -3.734375 4.33984375 C-4.229375 4.77296875 -4.724375 5.20609375 -5.234375 5.65234375 C-7.328125 5.234375 -7.328125 5.234375 -9.234375 4.65234375 C-8.16330383 3.78285058 -7.07691556 2.9322017 -5.984375 2.08984375 C-5.38109375 1.61417969 -4.7778125 1.13851563 -4.15625 0.6484375 C-2.234375 -0.34765625 -2.234375 -0.34765625 0 0 Z " fill="#1769B2" transform="translate(865.234375,296.34765625)"/>
<path d="M0 0 C-1.65 1.32 -3.3 2.64 -5 4 C-8 2 -8 2 -9 0 C-5.62182575 -0.84454356 -3.32534757 -1.10844919 0 0 Z " fill="#1D6DB5" transform="translate(749,295)"/>
<path d="M0 0 C0.33 0.66 0.66 1.32 1 2 C0 3.66666667 -1 5.33333333 -2 7 C-1.67 7.66 -1.34 8.32 -1 9 C-2.65 9 -4.3 9 -6 9 C-4.47291037 5.56404834 -2.40072955 2.88087546 0 0 Z " fill="#3A80BF" transform="translate(756,350)"/>
<path d="M0 0 C3.3 0 6.6 0 10 0 C10 0.33 10 0.66 10 1 C8.906875 1.103125 7.81375 1.20625 6.6875 1.3125 C3.14440371 1.97307727 2.06756277 2.2027092 0 5 C0 3.35 0 1.7 0 0 Z " fill="#2471B7" transform="translate(714,416)"/>
</svg>
